<?xml version="1.0" encoding="UTF-8" standalone="no"?>
<!DOCTYPE svg PUBLIC "-//W3C//DTD SVG 1.1//EN"
 "http://www.w3.org/Graphics/SVG/1.1/DTD/svg11.dtd">
<!-- Generated by graphviz version 2.43.0 (0)
 -->
<!-- Title: example Pages: 1 -->
<svg width="741pt" height="332pt"
 viewBox="0.00 0.00 740.97 332.00" xmlns="http://www.w3.org/2000/svg" xmlns:xlink="http://www.w3.org/1999/xlink">
<g id="graph0" class="graph" transform="scale(1 1) rotate(0) translate(4 328)">
<title>example</title>
<polygon fill="white" stroke="transparent" points="-4,4 -4,-328 736.97,-328 736.97,4 -4,4"/>
<g id="clust1" class="cluster">
<title>clusterLegend</title>
<polygon fill="none" stroke="black" points="8,-65 8,-316 613,-316 613,-65 8,-65"/>
<text text-anchor="middle" x="310.5" y="-300.8" font-family="Times-Roman" font-size="14.00">Legend</text>
</g>
<!-- legendNode0 -->
<g id="node1" class="node">
<title>legendNode0</title>
<polygon fill="none" stroke="black" points="325.03,-249.05 328.36,-249.15 331.65,-249.3 334.89,-249.49 338.08,-249.74 341.19,-250.03 344.22,-250.36 347.14,-250.75 349.96,-251.18 352.66,-251.65 355.23,-252.16 357.66,-252.71 359.95,-253.31 362.08,-253.94 364.05,-254.61 365.86,-255.31 367.5,-256.04 368.96,-256.8 370.25,-257.59 371.36,-258.41 372.29,-259.25 373.05,-260.11 373.63,-260.99 374.03,-261.89 374.26,-262.8 374.32,-263.72 374.22,-264.65 373.96,-265.59 373.54,-266.53 372.97,-267.47 372.26,-268.41 371.42,-269.35 370.44,-270.28 369.35,-271.2 368.13,-272.11 366.81,-273.01 365.39,-273.89 363.88,-274.75 362.28,-275.59 360.6,-276.41 358.85,-277.2 357.04,-277.96 355.16,-278.69 353.24,-279.39 351.27,-280.06 349.25,-280.69 347.2,-281.29 345.12,-281.84 343.01,-282.35 340.88,-282.82 338.73,-283.25 336.56,-283.64 334.38,-283.97 332.18,-284.26 329.98,-284.51 327.77,-284.7 325.55,-284.85 323.33,-284.95 321.11,-285 318.89,-285 316.67,-284.95 314.45,-284.85 312.23,-284.7 310.02,-284.51 307.82,-284.26 305.62,-283.97 303.44,-283.64 301.27,-283.25 299.12,-282.82 296.99,-282.35 294.88,-281.84 292.8,-281.29 290.75,-280.69 288.73,-280.06 286.76,-279.39 284.84,-278.69 282.96,-277.96 281.15,-277.2 279.4,-276.41 277.72,-275.59 276.12,-274.75 274.61,-273.89 273.19,-273.01 271.87,-272.11 270.65,-271.2 269.56,-270.28 268.58,-269.35 267.74,-268.41 267.03,-267.47 266.46,-266.53 266.04,-265.59 265.78,-264.65 265.68,-263.72 265.74,-262.8 265.97,-261.89 266.37,-260.99 266.95,-260.11 267.71,-259.25 268.64,-258.41 269.75,-257.59 271.04,-256.8 272.5,-256.04 274.14,-255.31 275.95,-254.61 277.92,-253.94 280.05,-253.31 282.34,-252.71 284.77,-252.16 287.34,-251.65 290.04,-251.18 292.86,-250.75 295.78,-250.36 298.81,-250.03 301.92,-249.74 305.11,-249.49 308.35,-249.3 311.64,-249.15 314.97,-249.05 318.32,-249 321.68,-249 325.03,-249.05"/>
<text text-anchor="middle" x="320" y="-263.9" font-family="Times-Roman" font-size="12.00">Executable</text>
</g>
<!-- legendNode1 -->
<g id="node2" class="node">
<title>legendNode1</title>
<polygon fill="none" stroke="black" points="143.93,-178.54 143.93,-193.46 106.48,-204 53.52,-204 16.07,-193.46 16.07,-178.54 53.52,-168 106.48,-168 143.93,-178.54"/>
<text text-anchor="middle" x="80" y="-182.9" font-family="Times-Roman" font-size="12.00">Static Library</text>
</g>
<!-- legendNode0&#45;&gt;legendNode1 -->
<g id="edge1" class="edge">
<title>legendNode0&#45;&gt;legendNode1</title>
<path fill="none" stroke="black" d="M279.78,-253.21C245.92,-242.39 196.22,-226.39 153,-212 145.05,-209.35 136.63,-206.51 128.44,-203.72"/>
<polygon fill="black" stroke="black" points="129.57,-200.41 118.98,-200.49 127.31,-207.03 129.57,-200.41"/>
</g>
<!-- legendNode2 -->
<g id="node3" class="node">
<title>legendNode2</title>
<polygon fill="none" stroke="black" points="304.1,-178.54 304.1,-193.46 263.62,-204 206.38,-204 165.9,-193.46 165.9,-178.54 206.38,-168 263.62,-168 304.1,-178.54"/>
<polygon fill="none" stroke="black" points="308.09,-175.45 308.09,-196.55 264.13,-208 205.87,-208 161.91,-196.55 161.91,-175.45 205.87,-164 264.13,-164 308.09,-175.45"/>
<text text-anchor="middle" x="235" y="-182.9" font-family="Times-Roman" font-size="12.00">Shared Library</text>
</g>
<!-- legendNode0&#45;&gt;legendNode2 -->
<g id="edge2" class="edge">
<title>legendNode0&#45;&gt;legendNode2</title>
<path fill="none" stroke="black" d="M302.39,-249.63C291.68,-239.68 277.71,-226.69 265.27,-215.13"/>
<polygon fill="black" stroke="black" points="267.47,-212.4 257.76,-208.16 262.7,-217.53 267.47,-212.4"/>
</g>
<!-- legendNode3 -->
<g id="node4" class="node">
<title>legendNode3</title>
<polygon fill="none" stroke="black" points="475.74,-178.54 475.74,-193.46 434.3,-204 375.7,-204 334.26,-193.46 334.26,-178.54 375.7,-168 434.3,-168 475.74,-178.54"/>
<polygon fill="none" stroke="black" points="479.75,-175.44 479.75,-196.56 434.81,-208 375.19,-208 330.25,-196.56 330.25,-175.44 375.19,-164 434.81,-164 479.75,-175.44"/>
<polygon fill="none" stroke="black" points="483.76,-172.33 483.76,-199.67 435.31,-212 374.69,-212 326.24,-199.67 326.24,-172.33 374.69,-160 435.31,-160 483.76,-172.33"/>
<text text-anchor="middle" x="405" y="-182.9" font-family="Times-Roman" font-size="12.00">Module Library</text>
</g>
<!-- legendNode0&#45;&gt;legendNode3 -->
<!-- legendNode7 -->
<g id="node8" class="node">
<title>legendNode7</title>
<polygon fill="none" stroke="black" points="604.5,-204 501.5,-204 501.5,-168 604.5,-168 604.5,-204"/>
<text text-anchor="middle" x="553" y="-182.9" font-family="Times-Roman" font-size="12.00">Custom Target</text>
</g>
<!-- legendNode0&#45;&gt;legendNode7 -->
<!-- legendNode4 -->
<g id="node5" class="node">
<title>legendNode4</title>
<polygon fill="none" stroke="black" points="194.05,-96.56 105,-109 15.95,-96.56 49.96,-76.44 160.04,-76.44 194.05,-96.56"/>
<text text-anchor="middle" x="105" y="-87.9" font-family="Times-Roman" font-size="12.00">Interface Library</text>
</g>
<!-- legendNode1&#45;&gt;legendNode4 -->
<g id="edge4" class="edge">
<title>legendNode1&#45;&gt;legendNode4</title>
<path fill="none" stroke="black" stroke-dasharray="5,2" d="M84.59,-167.94C88.31,-154.09 93.62,-134.32 97.9,-118.42"/>
<polygon fill="black" stroke="black" points="101.31,-119.2 100.53,-108.64 94.55,-117.39 101.31,-119.2"/>
<text text-anchor="middle" x="127.5" y="-130.8" font-family="Times-Roman" font-size="14.00">Interface</text>
</g>
<!-- legendNode5 -->
<g id="node6" class="node">
<title>legendNode5</title>
<polygon fill="none" stroke="black" points="355.59,-91 319.79,-109 248.21,-109 212.41,-91 248.21,-73 319.79,-73 355.59,-91"/>
<text text-anchor="middle" x="284" y="-87.9" font-family="Times-Roman" font-size="12.00">Object Library</text>
</g>
<!-- legendNode2&#45;&gt;legendNode5 -->
<g id="edge5" class="edge">
<title>legendNode2&#45;&gt;legendNode5</title>
<path fill="none" stroke="black" stroke-dasharray="1,5" d="M246.12,-163.9C253.25,-150.36 262.57,-132.67 270.18,-118.23"/>
<polygon fill="black" stroke="black" points="273.33,-119.76 274.89,-109.28 267.14,-116.5 273.33,-119.76"/>
<text text-anchor="middle" x="290.5" y="-130.8" font-family="Times-Roman" font-size="14.00">Private</text>
</g>
<!-- legendNode6 -->
<g id="node7" class="node">
<title>legendNode6</title>
<polygon fill="none" stroke="black" points="534.75,-86.99 518.75,-102.22 454,-109 389.25,-102.22 373.25,-86.99 418.06,-74.78 489.94,-74.78 534.75,-86.99"/>
<text text-anchor="middle" x="454" y="-87.9" font-family="Times-Roman" font-size="12.00">Unknown Library</text>
</g>
<!-- legendNode3&#45;&gt;legendNode6 -->
<g id="edge6" class="edge">
<title>legendNode3&#45;&gt;legendNode6</title>
<path fill="none" stroke="black" d="M418.39,-159.59C425.32,-146.43 433.76,-130.42 440.68,-117.28"/>
<polygon fill="black" stroke="black" points="443.84,-118.78 445.41,-108.31 437.65,-115.52 443.84,-118.78"/>
</g>
<!-- node0 -->
<g id="node9" class="node">
<title>node0</title>
<polygon fill="none" stroke="black" points="681.13,-249.05 683.87,-249.15 686.58,-249.3 689.24,-249.49 691.86,-249.74 694.42,-250.03 696.91,-250.36 699.31,-250.75 701.63,-251.18 703.85,-251.65 705.96,-252.16 707.96,-252.71 709.84,-253.31 711.59,-253.94 713.21,-254.61 714.7,-255.31 716.04,-256.04 717.25,-256.8 718.31,-257.59 719.22,-258.41 719.99,-259.25 720.61,-260.11 721.08,-260.99 721.42,-261.89 721.61,-262.8 721.66,-263.72 721.57,-264.65 721.36,-265.59 721.01,-266.53 720.55,-267.47 719.96,-268.41 719.27,-269.35 718.47,-270.28 717.56,-271.2 716.57,-272.11 715.48,-273.01 714.31,-273.89 713.07,-274.75 711.75,-275.59 710.38,-276.41 708.94,-277.2 707.45,-277.96 705.91,-278.69 704.32,-279.39 702.7,-280.06 701.05,-280.69 699.36,-281.29 697.65,-281.84 695.92,-282.35 694.16,-282.82 692.4,-283.25 690.61,-283.64 688.82,-283.97 687.01,-284.26 685.2,-284.51 683.39,-284.7 681.56,-284.85 679.74,-284.95 677.91,-285 676.09,-285 674.26,-284.95 672.44,-284.85 670.61,-284.7 668.8,-284.51 666.99,-284.26 665.18,-283.97 663.39,-283.64 661.6,-283.25 659.84,-282.82 658.08,-282.35 656.35,-281.84 654.64,-281.29 652.95,-280.69 651.3,-280.06 649.68,-279.39 648.09,-278.69 646.55,-277.96 645.06,-277.2 643.62,-276.41 642.25,-275.59 640.93,-274.75 639.69,-273.89 638.52,-273.01 637.43,-272.11 636.44,-271.2 635.53,-270.28 634.73,-269.35 634.04,-268.41 633.45,-267.47 632.99,-266.53 632.64,-265.59 632.43,-264.65 632.34,-263.72 632.39,-262.8 632.58,-261.89 632.92,-260.99 633.39,-260.11 634.01,-259.25 634.78,-258.41 635.69,-257.59 636.75,-256.8 637.96,-256.04 639.3,-255.31 640.79,-254.61 642.41,-253.94 644.16,-253.31 646.04,-252.71 648.04,-252.16 650.15,-251.65 652.37,-251.18 654.69,-250.75 657.09,-250.36 659.58,-250.03 662.14,-249.74 664.76,-249.49 667.42,-249.3 670.13,-249.15 672.87,-249.05 675.62,-249 678.38,-249 681.13,-249.05"/>
<text text-anchor="middle" x="677" y="-263.9" font-family="Times-Roman" font-size="12.00">example</text>
</g>
<!-- node1 -->
<g id="node10" class="node">
<title>node1</title>
<polygon fill="none" stroke="black" points="720.95,-178.54 720.95,-193.46 695.21,-204 658.79,-204 633.05,-193.46 633.05,-178.54 658.79,-168 695.21,-168 720.95,-178.54"/>
<text text-anchor="middle" x="677" y="-182.9" font-family="Times-Roman" font-size="12.00">greeting</text>
</g>
<!-- node0&#45;&gt;node1 -->
<g id="edge10" class="edge">
<title>node0&#45;&gt;node1</title>
<path fill="none" stroke="black" stroke-dasharray="1,5" d="M677,-248.86C677,-238.71 677,-225.63 677,-214.12"/>
<polygon fill="black" stroke="black" points="680.5,-214.11 677,-204.11 673.5,-214.11 680.5,-214.11"/>
</g>
<!-- node2 -->
<g id="node11" class="node">
<title>node2</title>
<polygon fill="none" stroke="black" points="732.94,-83.54 732.94,-98.46 700.17,-109 653.83,-109 621.06,-98.46 621.06,-83.54 653.83,-73 700.17,-73 732.94,-83.54"/>
<text text-anchor="middle" x="677" y="-87.9" font-family="Times-Roman" font-size="12.00">hello_world</text>
</g>
<!-- node1&#45;&gt;node2 -->
<g id="edge9" class="edge">
<title>node1&#45;&gt;node2</title>
<path fill="none" stroke="black" stroke-dasharray="1,5" d="M677,-167.94C677,-154.39 677,-135.18 677,-119.47"/>
<polygon fill="black" stroke="black" points="680.5,-119.26 677,-109.26 673.5,-119.26 680.5,-119.26"/>
</g>
<!-- node3 -->
<g id="node12" class="node">
<title>node3</title>
<polygon fill="none" stroke="black" points="710.13,-10.54 710.13,-25.46 690.72,-36 663.28,-36 643.87,-25.46 643.87,-10.54 663.28,0 690.72,0 710.13,-10.54"/>
<text text-anchor="middle" x="677" y="-14.9" font-family="Times-Roman" font-size="12.00">world</text>
</g>
<!-- node2&#45;&gt;node3 -->
<g id="edge8" class="edge">
<title>node2&#45;&gt;node3</title>
<path fill="none" stroke="black" stroke-dasharray="1,5" d="M677,-72.81C677,-64.79 677,-55.05 677,-46.07"/>
<polygon fill="black" stroke="black" points="680.5,-46.03 677,-36.03 673.5,-46.03 680.5,-46.03"/>
</g>
</g>
</svg>
